<svg xmlns="http://www.w3.org/2000/svg" xmlns:xlink="http://www.w3.org/1999/xlink" version="1.1" width="500" height="500" viewBox="0 0 500 500">
  <g transform="scale(8.359473492922117) translate(10, 10)">
    <defs id="SvgjsDefs1401"></defs>
    <path class="fil0" d="M 32.65 7.305 L 27.756 15.76 L 48.223 19.542 C 48.892 19.764 48.892 20.431 48.223 20.654 L 27.534 24.658 L 32.65 32.89 L 24.196 27.996 L 20.414 48.463 C 20.191 49.132 19.524 49.132 19.302 48.463 L 15.296 27.774 L 7.065 32.89 L 11.96 24.436 L -8.509 20.654 C -9.176 20.431 -9.176 19.764 -8.509 19.542 L 12.405 15.536 L 7.065 7.305 L 15.52 12.2 L 19.302 -8.269 C 19.524 -8.936 20.191 -8.936 20.414 -8.269 L 24.418 12.645 L 32.65 7.305 Z M 19.969 15.092 C 22.638 15.092 24.863 17.316 24.863 20.209 C 24.863 22.878 22.638 25.103 19.969 25.103 C 17.076 25.103 14.852 22.878 14.852 20.209 C 14.852 17.316 17.076 15.092 19.969 15.092 Z M 16.409 12.867 L 19.747 14.869 L 19.747 -4.709 L 16.409 12.867 Z M 12.627 23.547 L 14.629 20.209 L -4.949 20.209 L 12.627 23.547 Z M 23.307 27.329 L 19.969 25.325 L 19.969 44.905 L 23.307 27.329 Z M 27.089 16.649 L 25.085 19.987 L 44.665 19.987 L 27.089 16.649 Z" style="fill: rgb(0, 0, 0);"></path>
  </g>
</svg>