<?xml version="1.0" encoding="UTF-8"?>
<svg xmlns="http://www.w3.org/2000/svg" width="1000" height="1000" viewBox="0 0 1000 1000" fill="none">
  <path d="M500 83.333C270.833 83.333 83.333 270.833 83.333 500C83.333 729.167 270.833 916.667 500 916.667C729.167 916.667 916.667 729.167 916.667 500C916.667 270.833 729.167 83.333 500 83.333ZM500 833.333C316.667 833.333 166.667 683.333 166.667 500C166.667 316.667 316.667 166.667 500 166.667C683.333 166.667 833.333 316.667 833.333 500C833.333 683.333 683.333 833.333 500 833.333Z" fill="currentColor"/>
  <path d="M645.833 270.833L395.833 395.833L270.833 645.833L520.833 520.833L645.833 270.833ZM500 458.333C477.083 458.333 458.333 477.083 458.333 500C458.333 522.917 477.083 541.667 500 541.667C522.917 541.667 541.667 522.917 541.667 500C541.667 477.083 522.917 458.333 500 458.333Z" fill="currentColor"/>
</svg> 