<svg width="18" height="18" viewBox="0 0 18 18" fill="none" xmlns="http://www.w3.org/2000/svg">
    <path d="M9 0C10.5799 0 12.1319 0.416089 13.5 1.20605C14.8681 1.99587 16.0041 3.13193 16.7939 4.5C17.5839 5.86818 18 7.42014 18 9C18 11.3868 17.052 13.6764 15.3643 15.3643C13.6766 17.0521 11.3868 18 9 18C6.6132 18 4.3236 17.052 2.63574 15.3643C0.947882 13.6766 0 11.3868 0 9C0 6.6132 0.947954 4.3236 2.63574 2.63574C4.32342 0.947882 6.61302 0 9 0ZM9.11523 3.10449C9.06899 2.96576 8.93003 2.96576 8.88379 3.10449L8.09766 7.3584L6.34082 6.34082L7.4502 8.05176L3.10352 8.88477C2.96532 8.9311 2.96532 9.0689 3.10352 9.11523L7.3584 9.90137L6.34082 11.6592L8.05176 10.5957L8.88379 14.8955C8.93003 15.0342 9.06899 15.0342 9.11523 14.8955L9.90137 10.6416L11.6592 11.6592L10.5947 9.94824L14.8955 9.11523C15.0342 9.06899 15.0342 8.93101 14.8955 8.88477L10.6416 8.09863L11.6592 6.34082L9.94824 7.45117L9.11523 3.10449Z" fill="#95BCB7"/>
</svg>
